<svg width="210" height="185" viewBox="0 0 210 185" fill="none" xmlns="http://www.w3.org/2000/svg">
<path d="M103.441 0.59375L72.9512 41.7337C72.799 41.9415 72.6011 42.1105 72.3734 42.2269C72.1458 42.3433 71.8949 42.4039 71.6412 42.4037H51.9712C51.6536 42.4042 51.3439 42.5048 51.0856 42.6913C50.8274 42.8778 50.6335 43.1409 50.5312 43.4437L42.8512 66.7937C42.7423 67.1147 42.5174 67.3825 42.2212 67.5437L27.3612 75.5637C27.3292 75.5762 27.301 75.6008 27.2812 75.6337L16.4512 91.8737" stroke="#818388" stroke-width="2"/>
<path d="M16.4503 91.875L1.18031 93.2849C1.12903 93.29 1.08169 93.3147 1.04815 93.3538C1.01462 93.393 0.997475 93.4435 1.0003 93.495C1.00006 93.5474 1.01942 93.598 1.05458 93.6368C1.08973 93.6757 1.13814 93.7 1.1903 93.705L23.5203 95.235" stroke="#094B87" stroke-width="2"/>
<path d="M35.1294 100.574L24.9194 101.424C24.8034 101.433 24.6921 101.474 24.5968 101.54C24.5015 101.607 24.4257 101.699 24.377 101.805C24.3283 101.912 24.3084 102.03 24.3193 102.147C24.3303 102.265 24.3717 102.378 24.4394 102.474L49.6994 137.614C49.8845 137.869 50.1558 138.048 50.463 138.118C50.7702 138.188 51.0923 138.144 51.3694 137.994L60.7694 132.924C60.9218 132.843 61.0965 132.815 61.2641 132.846C61.4317 132.877 61.582 132.965 61.6894 133.094L62.8094 134.434" stroke="#094B87" stroke-width="2"/>
<path d="M62.8105 134.438C77.9039 150.323 92.4906 166.697 106.571 183.557" stroke="#063E84" stroke-width="2"/>
<path d="M107.84 184.154L146.76 144.414" stroke="#071F54" stroke-width="2"/>
<path d="M179.65 72.2756L163.18 63.4656C162.433 63.0658 161.802 62.4763 161.35 61.7556L148.6 41.5156" stroke="#45748C" stroke-width="2"/>
<path d="M148.601 41.5168C148.628 41.0568 148.318 40.4601 147.671 39.7268C147.579 39.6195 147.452 39.548 147.312 39.5243C147.171 39.5005 147.026 39.5262 146.901 39.5968L134.371 46.9468" stroke="#84868D" stroke-width="2"/>
<path d="M134.371 46.9458L120.961 27.1758" stroke="#45748C" stroke-width="2"/>
<path d="M120.959 27.1737L103.439 0.59375" stroke="#84868D" stroke-width="2"/>
<path d="M107.839 184.157L104.499 158.487C104.338 157.222 104.64 155.94 105.349 154.877L115.319 139.957" stroke="#0552C0" stroke-width="2"/>
<path d="M115.321 139.955L126.741 122.215C126.843 122.056 126.882 121.864 126.851 121.675C126.82 121.487 126.72 121.316 126.571 121.195C121.157 116.855 115.981 112.369 111.041 107.735C109.934 106.695 109.147 105.692 108.681 104.725C108.221 103.759 107.844 103.262 107.551 103.235C100.937 102.769 94.384 102.059 87.8906 101.105" stroke="#0860C3" stroke-width="2"/>
<path d="M120.96 27.1758L102.62 28.0458C102.378 28.06 102.15 28.1626 101.979 28.334C101.807 28.5054 101.705 28.7338 101.69 28.9758L100.71 47.4258C100.692 47.7877 100.761 48.1491 100.913 48.4798C101.064 48.8104 101.293 49.1006 101.58 49.3258L113.89 58.8858C114.118 59.0654 114.267 59.3262 114.306 59.6134C114.345 59.9006 114.271 60.1918 114.1 60.4258C109.114 67.1191 103.69 74.1358 97.8303 81.4758C95.1903 84.7824 92.7703 87.4758 90.5703 89.5558" stroke="#BEECFC" stroke-width="2"/>
<path d="M90.5703 89.5584C90.5703 89.5051 90.5737 89.4517 90.5803 89.3984" stroke="#84C7FC" stroke-width="2"/>
<path d="M90.581 89.3968C89.641 89.4635 89.1876 89.1101 89.2209 88.3368C89.5143 81.2701 89.6443 74.2201 89.611 67.1868C89.6075 66.8591 89.5093 66.5394 89.3284 66.2662C89.1474 65.993 88.8913 65.7779 88.5909 65.6468L66.2809 56.0968C66.2389 56.0788 66.1932 56.0714 66.1476 56.0752C66.1021 56.079 66.0582 56.0939 66.0197 56.1185C65.9813 56.1432 65.9495 56.1769 65.927 56.2167C65.9046 56.2564 65.8922 56.3011 65.891 56.3468C65.801 58.4468 66.4809 61.1768 66.7209 62.8468C67.9943 71.6668 69.6709 80.3368 71.7509 88.8568C71.7654 88.9145 71.7677 88.9746 71.7578 89.0334C71.7478 89.0922 71.7258 89.1486 71.6931 89.199C71.6604 89.2495 71.6176 89.293 71.5674 89.327C71.5172 89.361 71.4606 89.3848 71.4009 89.3968L68.991 89.8868" stroke="#BEECFC" stroke-width="2"/>
<path d="M68.9912 89.8867C58.6712 90.4467 48.2712 90.5668 37.9612 91.3768C34.6678 91.6301 31.3712 91.8334 28.0712 91.9867C24.2245 92.1601 20.3512 92.1234 16.4512 91.8768" stroke="#84C7FC" stroke-width="2"/>
<path d="M134.371 46.9456C129.451 61.2723 122.588 74.7556 113.781 87.3956C113.727 87.4678 113.7 87.5564 113.703 87.6465C113.707 87.7366 113.742 87.8225 113.802 87.8897C113.863 87.9569 113.944 88.0012 114.033 88.015C114.122 88.0289 114.213 88.0114 114.291 87.9656L147.781 69.9056C148.149 69.7072 148.451 69.4041 148.648 69.0342C148.846 68.6643 148.93 68.244 148.891 67.8256C148.124 59.4523 148.028 50.6823 148.601 41.5156" stroke="#BEECFC" stroke-width="2"/>
<path d="M192.63 90.207C191.297 91.127 189.86 91.5637 188.32 91.517C179.22 91.237 170.124 90.827 161.03 90.287C153.264 89.827 146.287 89.5903 140.1 89.577C133.087 89.5703 126.097 89.577 119.13 89.597C116.204 89.6037 113.267 89.587 110.32 89.547C103.914 89.4603 97.3303 89.4637 90.5703 89.557" stroke="#46B5FB" stroke-width="2"/>
<path d="M146.761 144.416L158.861 132.446C159.217 132.095 159.679 131.871 160.174 131.807C160.669 131.744 161.17 131.846 161.601 132.096L163.641 133.276C163.845 133.388 164.019 133.545 164.151 133.736L167.171 137.936C167.26 138.061 167.382 138.158 167.523 138.218C167.664 138.277 167.82 138.297 167.972 138.274C168.124 138.251 168.268 138.187 168.388 138.089C168.508 137.991 168.598 137.862 168.651 137.716C169.084 136.476 169.578 135.409 170.131 134.516C172.244 131.143 174.248 127.746 176.141 124.326C177.954 121.046 180.058 117.743 182.451 114.416C184.958 110.923 187.361 107.319 189.661 103.606C189.691 103.565 189.707 103.515 189.704 103.464C189.702 103.413 189.682 103.364 189.648 103.327C189.613 103.289 189.567 103.264 189.517 103.257C189.466 103.249 189.415 103.26 189.371 103.286L164.721 116.086C164.592 116.152 164.45 116.19 164.305 116.197C164.16 116.204 164.016 116.18 163.881 116.126L154.021 112.216C153.975 112.198 153.933 112.171 153.899 112.135C153.865 112.1 153.839 112.057 153.822 112.01C153.806 111.964 153.8 111.914 153.805 111.865C153.81 111.816 153.826 111.769 153.851 111.726L159.311 102.276C159.321 102.257 159.326 102.235 159.326 102.213C159.325 102.191 159.319 102.17 159.308 102.151C159.297 102.132 159.282 102.116 159.263 102.105C159.244 102.093 159.223 102.087 159.201 102.086C142.508 101.393 128.404 100.913 116.891 100.646C111.891 100.526 108.151 99.9761 102.651 99.6061C101.758 99.5461 100.451 98.9927 98.7309 97.9461C98.4085 97.7486 98.0498 97.6257 97.6809 97.5861C97.6076 97.5728 97.5142 97.5728 97.4009 97.5861C97.3142 97.5947 97.2266 97.5847 97.1441 97.5566C97.0616 97.5286 96.9861 97.4832 96.9226 97.4235C96.8591 97.3638 96.8092 97.2912 96.7761 97.2106C96.743 97.1299 96.7276 97.0432 96.7309 96.9561C96.7509 96.4161 96.9609 95.9294 97.3609 95.4961" stroke="#0A2258" stroke-width="2"/>
<path d="M97.3594 95.497C117.513 95.4436 137.666 95.3803 157.819 95.307C165.646 95.2803 182.349 94.737 207.929 93.677C208.046 93.6719 208.157 93.6226 208.238 93.539C208.32 93.4554 208.367 93.3438 208.369 93.2269V93.207C208.375 93.0897 208.336 92.9747 208.26 92.8855C208.183 92.7963 208.076 92.7396 207.959 92.7269C202.586 92.1736 198.373 91.8503 195.319 91.7569C194.006 91.7169 193.109 91.2003 192.629 90.207" stroke="#0F5290" stroke-width="2"/>
<path d="M192.63 90.2073L182.97 74.4273C182.787 74.1383 182.536 73.9012 182.24 73.7373L179.65 72.2773" stroke="#487790" stroke-width="2"/>
<path d="M115.321 139.957L94.8711 138.938" stroke="#0A82F8" stroke-width="2"/>
<path d="M94.87 138.934L90.87 131.444C90.8506 131.412 90.8402 131.37 90.84 131.324L89.14 106.844C89.1362 106.789 89.1216 106.735 89.0969 106.686C89.0722 106.636 89.0379 106.592 88.9961 106.556C88.9543 106.519 88.9057 106.492 88.8532 106.474C88.8006 106.457 88.7452 106.45 88.69 106.454L66.4 108.004C66.2412 108.016 66.0876 108.067 65.9527 108.152C65.8179 108.236 65.7057 108.353 65.6259 108.491C65.5461 108.629 65.5011 108.784 65.4949 108.943C65.4886 109.102 65.5213 109.261 65.59 109.404L70.78 120.214C70.8532 120.374 70.9135 120.541 70.96 120.714C72.2867 126.014 74.4834 129.798 77.55 132.064" stroke="#0860C3" stroke-width="2"/>
<path d="M77.5506 132.066C72.9639 133.326 68.0505 134.116 62.8105 134.436" stroke="#0A82F8" stroke-width="2"/>
<path d="M97.3606 95.4961L88.1406 95.6261" stroke="#0860C3" stroke-width="2"/>
<path d="M88.1395 95.6244L23.5195 95.2344" stroke="#0F5290" stroke-width="2"/>
<path d="M88.1406 95.625C89.254 95.905 89.804 96.7516 89.7906 98.165C89.7706 100.045 89.1373 101.025 87.8906 101.105" stroke="#0A2258" stroke-width="2"/>
<path d="M87.8909 101.108C80.8409 100.678 73.7509 100.108 66.8009 100.098C56.2275 100.091 45.6709 100.251 35.1309 100.578" stroke="#0F5290" stroke-width="2"/>
<path d="M90.5802 89.3984C90.2469 89.7717 89.9002 89.955 89.5402 89.9484C82.7269 89.815 75.8769 89.795 68.9902 89.8884" stroke="#46B5FB" stroke-width="2"/>
<path d="M94.8708 138.936C95.4974 139.71 95.9074 140.493 96.1008 141.286C96.1117 141.329 96.1099 141.375 96.0956 141.417C96.0812 141.459 96.055 141.496 96.0201 141.523C95.9852 141.551 95.9431 141.568 95.8988 141.572C95.8546 141.576 95.8101 141.567 95.7708 141.546L77.5508 132.066" stroke="#0552C0" stroke-width="2"/>
<path d="M120.961 27.1737L102.621 28.0437C102.379 28.058 102.151 28.1605 101.979 28.332C101.808 28.5034 101.705 28.7317 101.691 28.9737L100.711 47.4237C100.693 47.7856 100.762 48.1471 100.914 48.4777C101.065 48.8084 101.294 49.0985 101.581 49.3237L113.891 58.8837C114.119 59.0633 114.268 59.3242 114.307 59.6114C114.346 59.8985 114.272 60.1897 114.101 60.4237C109.114 67.117 103.691 74.1337 97.8312 81.4737C95.1912 84.7804 92.7712 87.4737 90.5712 89.5537C90.5712 89.5004 90.5745 89.447 90.5812 89.3937C89.6412 89.4604 89.1878 89.107 89.2212 88.3337C89.5145 81.267 89.6445 74.217 89.6112 67.1837C89.6077 66.856 89.5095 66.5363 89.3286 66.2631C89.1476 65.9899 88.8915 65.7748 88.5912 65.6437L66.2812 56.0937C66.2392 56.0758 66.1934 56.0683 66.1479 56.0721C66.1023 56.0759 66.0584 56.0908 66.02 56.1154C65.9815 56.1401 65.9497 56.1738 65.9272 56.2136C65.9048 56.2534 65.8924 56.298 65.8912 56.3437C65.8012 58.4437 66.4812 61.1737 66.7212 62.8437C67.9945 71.6637 69.6712 80.3337 71.7512 88.8537C71.7656 88.9114 71.7679 88.9715 71.758 89.0303C71.748 89.0891 71.726 89.1455 71.6933 89.196C71.6606 89.2464 71.6178 89.29 71.5676 89.3239C71.5174 89.3579 71.4608 89.3817 71.4012 89.3937L68.9912 89.8837C58.6712 90.4437 48.2712 90.5637 37.9612 91.3737C34.6678 91.6271 31.3712 91.8304 28.0712 91.9837C24.2245 92.157 20.3512 92.1204 16.4512 91.8737L27.2812 75.6337C27.301 75.6008 27.3292 75.5762 27.3612 75.5637L42.2212 67.5437C42.5174 67.3825 42.7423 67.1147 42.8512 66.7937L50.5312 43.4437C50.6335 43.1409 50.8274 42.8778 51.0856 42.6913C51.3439 42.5048 51.6536 42.4042 51.9712 42.4037H71.6412C71.8949 42.4039 72.1458 42.3433 72.3734 42.2269C72.6011 42.1105 72.799 41.9415 72.9512 41.7337L103.441 0.59375L120.961 27.1737Z" fill="#FCFEFD"/>
<path d="M120.96 27.1758L134.37 46.9457C129.45 61.2724 122.587 74.7558 113.78 87.3958C113.726 87.4679 113.699 87.5565 113.703 87.6466C113.707 87.7367 113.742 87.8226 113.802 87.8898C113.862 87.957 113.943 88.0013 114.032 88.0151C114.121 88.029 114.213 88.0115 114.29 87.9658L147.78 69.9058C148.149 69.7073 148.45 69.4042 148.648 69.0343C148.845 68.6644 148.929 68.2441 148.89 67.8258C148.124 59.4524 148.027 50.6824 148.6 41.5158L161.35 61.7557C161.802 62.4765 162.433 63.0659 163.18 63.4658L179.65 72.2758L182.24 73.7358C182.536 73.8997 182.786 74.1368 182.97 74.4258L192.63 90.2058C191.297 91.1258 189.86 91.5624 188.32 91.5158C179.22 91.2358 170.124 90.8257 161.03 90.2857C153.264 89.8257 146.287 89.5891 140.1 89.5758C133.087 89.5691 126.097 89.5758 119.13 89.5958C116.204 89.6024 113.267 89.5858 110.32 89.5458C103.914 89.4591 97.3303 89.4624 90.5703 89.5558C92.7703 87.4758 95.1903 84.7824 97.8303 81.4757C103.69 74.1357 109.114 67.1191 114.1 60.4258C114.271 60.1918 114.345 59.9006 114.306 59.6134C114.267 59.3262 114.118 59.0654 113.89 58.8857L101.58 49.3258C101.293 49.1006 101.064 48.8104 100.913 48.4798C100.761 48.1491 100.692 47.7876 100.71 47.4258L101.69 28.9758C101.705 28.7338 101.807 28.5054 101.979 28.334C102.15 28.1626 102.378 28.06 102.62 28.0458L120.96 27.1758Z" fill="#7FDAFB"/>
<path d="M148.601 41.5168C148.028 50.6834 148.124 59.4534 148.891 67.8268C148.93 68.2451 148.846 68.6655 148.648 69.0354C148.451 69.4053 148.149 69.7083 147.781 69.9068L114.291 87.9668C114.213 88.0126 114.122 88.03 114.033 88.0162C113.944 88.0023 113.863 87.958 113.802 87.8908C113.742 87.8236 113.707 87.7377 113.703 87.6476C113.7 87.5576 113.727 87.4689 113.781 87.3968C122.588 74.7568 129.451 61.2734 134.371 46.9468L146.901 39.5968C147.026 39.5262 147.171 39.5005 147.312 39.5243C147.452 39.548 147.579 39.6195 147.671 39.7268C148.318 40.4601 148.628 41.0568 148.601 41.5168Z" fill="#FCFEFD"/>
<path d="M90.581 89.3968C90.2476 89.7701 89.901 89.9535 89.541 89.9468C82.7276 89.8135 75.8776 89.7935 68.991 89.8868L71.4009 89.3968C71.4606 89.3848 71.5172 89.361 71.5674 89.327C71.6176 89.293 71.6604 89.2495 71.6931 89.199C71.7258 89.1486 71.7478 89.0922 71.7578 89.0334C71.7677 88.9746 71.7654 88.9145 71.7509 88.8568C69.6709 80.3368 67.9943 71.6668 66.7209 62.8468C66.4809 61.1768 65.801 58.4468 65.891 56.3468C65.8922 56.3011 65.9046 56.2564 65.927 56.2167C65.9495 56.1769 65.9813 56.1432 66.0197 56.1185C66.0582 56.0939 66.1021 56.079 66.1476 56.0752C66.1932 56.0714 66.2389 56.0788 66.2809 56.0968L88.5909 65.6468C88.8913 65.7779 89.1474 65.993 89.3284 66.2662C89.5093 66.5394 89.6075 66.8591 89.611 67.1868C89.6443 74.2201 89.5143 81.2701 89.2209 88.3368C89.1876 89.1101 89.641 89.4635 90.581 89.3968Z" fill="#7FDAFB"/>
<path d="M90.5703 89.5545C97.3303 89.4612 103.914 89.4578 110.32 89.5445C113.267 89.5845 116.204 89.6012 119.13 89.5945C126.097 89.5745 133.087 89.5678 140.1 89.5745C146.287 89.5878 153.264 89.8245 161.03 90.2845C170.124 90.8245 179.22 91.2345 188.32 91.5145C189.86 91.5612 191.297 91.1245 192.63 90.2045C193.11 91.1978 194.007 91.7145 195.32 91.7545C198.374 91.8478 202.587 92.1712 207.96 92.7245C208.077 92.7371 208.184 92.7938 208.261 92.8831C208.337 92.9723 208.376 93.0873 208.37 93.2045V93.2245C208.368 93.3414 208.321 93.453 208.239 93.5365C208.158 93.6201 208.047 93.6694 207.93 93.6745C182.35 94.7345 165.647 95.2778 157.82 95.3045C137.667 95.3778 117.514 95.4412 97.3603 95.4945L88.1403 95.6245L23.5203 95.2345L1.1903 93.7045C1.13814 93.6995 1.08973 93.6752 1.05458 93.6364C1.01942 93.5975 1.00006 93.5469 1.0003 93.4945C0.997475 93.4431 1.01462 93.3925 1.04815 93.3534C1.08169 93.3142 1.12903 93.2896 1.18031 93.2845L16.4503 91.8745C20.3503 92.1212 24.2236 92.1578 28.0703 91.9845C31.3703 91.8312 34.667 91.6279 37.9603 91.3745C48.2703 90.5645 58.6703 90.4445 68.9903 89.8845C75.877 89.7912 82.727 89.8112 89.5403 89.9445C89.9003 89.9512 90.247 89.7678 90.5803 89.3945C90.5737 89.4478 90.5703 89.5012 90.5703 89.5545Z" fill="#0C8FFB"/>
<path d="M97.3606 95.4961C96.9606 95.9295 96.7506 96.4161 96.7306 96.9561C96.7273 97.0432 96.7428 97.13 96.7758 97.2106C96.8089 97.2912 96.8588 97.3638 96.9223 97.4235C96.9858 97.4832 97.0613 97.5286 97.1438 97.5566C97.2263 97.5847 97.3139 97.5947 97.4006 97.5861C97.5139 97.5728 97.6073 97.5728 97.6806 97.5861C98.0495 97.6257 98.4082 97.7486 98.7306 97.9461C100.451 98.9928 101.757 99.5461 102.651 99.6061C108.151 99.9761 111.891 100.526 116.891 100.646C128.404 100.913 142.507 101.393 159.201 102.086C159.223 102.087 159.244 102.093 159.263 102.105C159.281 102.116 159.297 102.132 159.308 102.151C159.319 102.17 159.325 102.191 159.325 102.213C159.326 102.235 159.321 102.257 159.311 102.276L153.851 111.726C153.826 111.769 153.81 111.816 153.805 111.865C153.8 111.914 153.806 111.964 153.822 112.01C153.838 112.057 153.864 112.1 153.899 112.135C153.933 112.171 153.975 112.198 154.021 112.216L163.881 116.126C164.015 116.18 164.16 116.204 164.305 116.197C164.45 116.19 164.591 116.152 164.721 116.086L189.371 103.286C189.414 103.26 189.466 103.249 189.516 103.257C189.567 103.264 189.613 103.289 189.647 103.327C189.682 103.364 189.702 103.413 189.704 103.464C189.707 103.515 189.691 103.565 189.661 103.606C187.361 107.319 184.957 110.923 182.451 114.416C180.057 117.743 177.954 121.046 176.141 124.326C174.247 127.746 172.244 131.143 170.131 134.516C169.577 135.409 169.084 136.476 168.651 137.716C168.598 137.862 168.507 137.991 168.388 138.089C168.268 138.188 168.124 138.251 167.972 138.274C167.819 138.297 167.664 138.277 167.523 138.218C167.382 138.158 167.26 138.061 167.171 137.936L164.151 133.736C164.019 133.545 163.845 133.388 163.641 133.276L161.601 132.096C161.17 131.846 160.669 131.744 160.173 131.807C159.678 131.871 159.217 132.095 158.861 132.446L146.761 144.416L107.841 184.156L104.501 158.486C104.34 157.221 104.641 155.939 105.351 154.876L115.321 139.956L126.741 122.216C126.843 122.057 126.882 121.864 126.851 121.676C126.82 121.488 126.72 121.317 126.571 121.196C121.157 116.856 115.981 112.369 111.041 107.736C109.934 106.696 109.147 105.693 108.681 104.726C108.221 103.759 107.844 103.263 107.551 103.236C100.937 102.769 94.384 102.059 87.8906 101.106C89.1373 101.026 89.7706 100.046 89.7906 98.1661C89.804 96.7528 89.254 95.9061 88.1406 95.6261L97.3606 95.4961Z" fill="#03308B"/>
<path d="M87.8894 101.108C94.3828 102.061 100.936 102.771 107.549 103.238C107.843 103.265 108.219 103.761 108.679 104.728C109.146 105.695 109.933 106.698 111.039 107.738C115.979 112.371 121.156 116.858 126.569 121.198C126.719 121.319 126.818 121.49 126.85 121.678C126.881 121.866 126.842 122.058 126.739 122.218L115.319 139.958L94.8694 138.938L90.8694 131.448C90.85 131.415 90.8396 131.374 90.8394 131.328L89.1394 106.848C89.1356 106.793 89.121 106.739 89.0963 106.689C89.0716 106.64 89.0373 106.596 88.9955 106.559C88.9537 106.523 88.9051 106.495 88.8526 106.478C88.8001 106.461 88.7446 106.454 88.6894 106.458L66.3994 108.008C66.2406 108.02 66.0871 108.07 65.9522 108.155C65.8173 108.24 65.7051 108.356 65.6253 108.494C65.5455 108.632 65.5005 108.787 65.4943 108.947C65.4881 109.106 65.5207 109.264 65.5894 109.408L70.7794 120.218C70.8526 120.378 70.9129 120.545 70.9594 120.718C72.2861 126.018 74.4828 129.801 77.5494 132.068C72.9628 133.328 68.0494 134.118 62.8094 134.438L61.6894 133.098C61.582 132.969 61.4317 132.881 61.2641 132.85C61.0965 132.819 60.9218 132.846 60.7694 132.928L51.3694 137.998C51.0923 138.148 50.7702 138.192 50.463 138.122C50.1558 138.052 49.8845 137.873 49.6994 137.618L24.4394 102.478C24.3717 102.381 24.3303 102.269 24.3193 102.151C24.3084 102.034 24.3283 101.916 24.377 101.809C24.4257 101.702 24.5015 101.611 24.5968 101.544C24.6921 101.477 24.8034 101.437 24.9194 101.428L35.1294 100.578C45.6694 100.251 56.2261 100.091 66.7994 100.098C73.7494 100.108 80.8394 100.678 87.8894 101.108Z" fill="#0C8FFB"/>
<path d="M94.87 138.934C95.4967 139.708 95.9067 140.491 96.1 141.284C96.1109 141.327 96.1091 141.373 96.0948 141.415C96.0805 141.457 96.0543 141.494 96.0194 141.521C95.9845 141.549 95.9423 141.566 95.8981 141.57C95.8538 141.574 95.8094 141.565 95.77 141.544L77.55 132.064C74.4834 129.798 72.2867 126.014 70.96 120.714C70.9135 120.541 70.8532 120.374 70.78 120.214L65.59 109.404C65.5213 109.261 65.4886 109.102 65.4949 108.943C65.5011 108.784 65.5461 108.629 65.6259 108.491C65.7057 108.353 65.8179 108.236 65.9527 108.152C66.0876 108.067 66.2412 108.016 66.4 108.004L88.69 106.454C88.7452 106.45 88.8006 106.457 88.8532 106.474C88.9057 106.492 88.9543 106.519 88.9961 106.556C89.0379 106.592 89.0722 106.636 89.0969 106.686C89.1216 106.735 89.1362 106.789 89.14 106.844L90.84 131.324C90.8402 131.37 90.8506 131.412 90.87 131.444L94.87 138.934Z" fill="#03308B"/>
<path d="M94.8705 138.936L115.321 139.956L105.351 154.876C104.641 155.94 104.339 157.222 104.501 158.486L107.841 184.156L106.571 183.556C92.4906 166.696 77.9039 150.323 62.8105 134.436C68.0505 134.116 72.9639 133.326 77.5506 132.066L95.7706 141.546C95.8099 141.567 95.8544 141.576 95.8986 141.572C95.9429 141.568 95.985 141.551 96.0199 141.524C96.0548 141.496 96.081 141.459 96.0953 141.417C96.1096 141.375 96.1115 141.33 96.1006 141.286C95.9072 140.493 95.4972 139.71 94.8705 138.936Z" fill="#0774F5"/>
</svg>
